<svg width="84" height="19" viewBox="0 0 84 19" fill="none" xmlns="http://www.w3.org/2000/svg">
<path d="M8.67806 3.09367C8.98566 2.18997 10.2638 2.18998 10.5714 3.09367L11.5549 5.98313C11.6929 6.3884 12.0735 6.66091 12.5016 6.66091H15.5818C16.5617 6.66091 16.9569 7.92416 16.1517 8.48263L13.7409 10.1546C13.3741 10.409 13.2203 10.8758 13.3642 11.2985L14.3036 14.0586C14.6145 14.9718 13.5798 15.7523 12.7871 15.2025L10.1946 13.4046C9.85187 13.1668 9.39758 13.1668 9.05483 13.4046L6.46235 15.2025C5.66969 15.7523 4.63496 14.9718 4.9458 14.0586L5.88528 11.2985C6.02915 10.8758 5.87539 10.409 5.50851 10.1546L3.09777 8.48263C2.29254 7.92416 2.68772 6.66091 3.66767 6.66091H6.74788C7.17598 6.66091 7.55659 6.3884 7.69454 5.98313L8.67806 3.09367Z" fill="#FFA858"/>
<path d="M24.8607 3.23964C25.1601 2.31832 26.4635 2.31832 26.7628 3.23964L27.6499 5.96992C27.7838 6.38194 28.1678 6.66091 28.601 6.66091H31.4717C32.4405 6.66091 32.8432 7.90051 32.0595 8.46992L29.737 10.1574C29.3865 10.412 29.2399 10.8634 29.3737 11.2754L30.2609 14.0058C30.5602 14.9271 29.5057 15.6932 28.722 15.1238L26.3996 13.4364C26.0491 13.1817 25.5745 13.1817 25.224 13.4364L22.9015 15.1238C22.1178 15.6932 21.0634 14.9271 21.3627 14.0058L22.2498 11.2754C22.3837 10.8634 22.237 10.412 21.8866 10.1574L19.564 8.46991C18.7803 7.90051 19.1831 6.66091 20.1518 6.66091H23.0226C23.4558 6.66091 23.8398 6.38194 23.9736 5.96992L24.8607 3.23964Z" fill="#FFA858"/>
<path d="M41.0521 3.09367C41.3597 2.18997 42.6379 2.18998 42.9455 3.09367L43.929 5.98313C44.0669 6.3884 44.4475 6.66091 44.8757 6.66091H47.9559C48.9358 6.66091 49.331 7.92416 48.5258 8.48263L46.115 10.1546C45.7481 10.409 45.5944 10.8758 45.7382 11.2985L46.6777 14.0586C46.9886 14.9718 45.9538 15.7523 45.1612 15.2025L42.5687 13.4046C42.226 13.1668 41.7717 13.1668 41.4289 13.4046L38.8364 15.2025C38.0438 15.7523 37.009 14.9718 37.3199 14.0586L38.2594 11.2985C38.4032 10.8758 38.2495 10.409 37.8826 10.1546L35.4719 8.48263C34.6666 7.92416 35.0618 6.66091 36.0417 6.66091H39.122C39.5501 6.66091 39.9307 6.3884 40.0686 5.98313L41.0521 3.09367Z" fill="#FFA858"/>
<path d="M57.2348 3.23964C57.5341 2.31832 58.8375 2.31832 59.1369 3.23964L60.024 5.96992C60.1579 6.38194 60.5418 6.66091 60.975 6.66091H63.8458C64.8145 6.66091 65.2173 7.90051 64.4336 8.46992L62.1111 10.1574C61.7606 10.412 61.6139 10.8634 61.7478 11.2754L62.6349 14.0058C62.9343 14.9271 61.8798 15.6932 61.0961 15.1238L58.7736 13.4364C58.4231 13.1817 57.9485 13.1817 57.598 13.4364L55.2756 15.1238C54.4919 15.6932 53.4374 14.9271 53.7367 14.0058L54.6239 11.2754C54.7577 10.8634 54.6111 10.412 54.2606 10.1574L51.9381 8.46991C51.1544 7.90051 51.5571 6.66091 52.5259 6.66091H55.3966C55.8298 6.66091 56.2138 6.38194 56.3477 5.96992L57.2348 3.23964Z" fill="#FFA858"/>
<path d="M73.4262 3.09367C73.7338 2.18997 75.0119 2.18998 75.3195 3.09367L76.303 5.98313C76.441 6.3884 76.8216 6.66091 77.2497 6.66091H80.3299C81.3099 6.66091 81.705 7.92416 80.8998 8.48263L78.4891 10.1546C78.1222 10.409 77.9684 10.8758 78.1123 11.2985L79.0518 14.0586C79.3626 14.9718 78.3279 15.7523 77.5352 15.2025L74.9428 13.4046C74.6 13.1668 74.1457 13.1668 73.803 13.4046L71.2105 15.2025C70.4178 15.7523 69.3831 14.9718 69.6939 14.0586L70.6334 11.2985C70.7773 10.8758 70.6235 10.409 70.2566 10.1546L67.8459 8.48263C67.0407 7.92416 67.4359 6.66091 68.4158 6.66091H71.496C71.9241 6.66091 72.3047 6.3884 72.4427 5.98313L73.4262 3.09367Z" fill="#FFA858"/>
</svg>
